<svg width="20" height="20" viewBox="0 0 20 20" fill="none" xmlns="http://www.w3.org/2000/svg">
<path d="M12.25 5.5V3.25C12.25 2.72689 12.25 2.46534 12.1925 2.25074C12.0365 1.6684 11.5816 1.21354 10.9993 1.0575C10.7847 1 10.5231 1 10 1C9.47689 1 9.21534 1 9.00074 1.0575C8.4184 1.21354 7.96354 1.6684 7.8075 2.25074C7.75 2.46534 7.75 2.72689 7.75 3.25V5.5C7.75 6.56066 7.75 7.09099 7.4205 7.4205C7.09099 7.75 6.56066 7.75 5.5 7.75L3.25 7.75C2.72689 7.75 2.46534 7.75 2.25074 7.8075C1.6684 7.96354 1.21354 8.4184 1.0575 9.00074C1 9.21534 1 9.47689 1 10C1 10.5231 1 10.7847 1.0575 10.9993C1.21354 11.5816 1.6684 12.0365 2.25074 12.1925C2.46534 12.25 2.72689 12.25 3.25 12.25H5.5C6.56066 12.25 7.09099 12.25 7.4205 12.5795C7.75 12.909 7.75 13.4393 7.75 14.5V16.75C7.75 17.2731 7.75 17.5347 7.8075 17.7493C7.96354 18.3316 8.4184 18.7865 9.00074 18.9425C9.21534 19 9.47689 19 10 19C10.5231 19 10.7847 19 10.9993 18.9425C11.5816 18.7865 12.0365 18.3316 12.1925 17.7493C12.25 17.5347 12.25 17.2731 12.25 16.75V14.5C12.25 13.4393 12.25 12.909 12.5795 12.5795C12.909 12.25 13.4393 12.25 14.5 12.25H16.75C17.2731 12.25 17.5347 12.25 17.7493 12.1925C18.3316 12.0365 18.7865 11.5816 18.9425 10.9993C19 10.7847 19 10.5231 19 10C19 9.47689 19 9.21534 18.9425 9.00074C18.7865 8.4184 18.3316 7.96354 17.7493 7.8075C17.5347 7.75 17.2731 7.75 16.75 7.75H14.5C13.4393 7.75 12.909 7.75 12.5795 7.4205C12.25 7.09099 12.25 6.56066 12.25 5.5Z" stroke="#5D587B" stroke-width="1.5" stroke-linecap="round" stroke-linejoin="round"/>
</svg>
