<svg width="24" height="24" viewBox="0 0 24 24" fill="none" xmlns="http://www.w3.org/2000/svg">
<path d="M20.9427 16.8354C20.2864 12.8866 18.2432 9.94613 16.467 8.219C15.9501 7.71642 15.6917 7.46513 15.1208 7.23257C14.5499 7 14.0592 7 13.0778 7H10.9222C9.94081 7 9.4501 7 8.87922 7.23257C8.30834 7.46513 8.04991 7.71642 7.53304 8.219C5.75682 9.94613 3.71361 12.8866 3.05727 16.8354C2.56893 19.7734 5.27927 22 8.30832 22H15.6917C18.7207 22 21.4311 19.7734 20.9427 16.8354Z" stroke="#5D587B" stroke-width="1.5" stroke-linecap="round"/>
<path d="M12.663 11C12.663 10.5858 12.3273 10.25 11.913 10.25C11.4988 10.25 11.163 10.5858 11.163 11L12.663 11ZM11.163 18C11.163 18.4142 11.4988 18.75 11.913 18.75C12.3273 18.75 12.663 18.4142 12.663 18H11.163ZM12.9857 12.9539C13.2363 13.2836 13.7068 13.3477 14.0366 13.0971C14.3664 12.8464 14.4305 12.3759 14.1798 12.0461L12.9857 12.9539ZM10.7472 16.1022C10.4385 15.826 9.9644 15.8523 9.68816 16.1609C9.41193 16.4696 9.43821 16.9437 9.74687 17.22L10.7472 16.1022ZM11.913 13.6493C11.2657 13.6493 10.971 13.5437 10.8538 13.4647C10.8 13.4285 10.75 13.3874 10.75 13.1895H9.25C9.25 13.771 9.46084 14.3349 10.0158 14.7088C10.5072 15.0398 11.169 15.1493 11.913 15.1493V13.6493ZM10.75 13.1895C10.75 13.094 10.8008 12.946 11.0056 12.7949C11.2101 12.6439 11.5285 12.5279 11.913 12.5279V11.0279C11.241 11.0279 10.6029 11.2279 10.115 11.5879C9.62743 11.9476 9.25 12.5054 9.25 13.1895H10.75ZM13.25 15.8109C13.25 16.0328 13.1711 16.1505 13.0026 16.2518C12.7885 16.3804 12.4212 16.4724 11.913 16.4724V17.9724C12.5575 17.9724 13.2337 17.8628 13.7749 17.5376C14.3617 17.1852 14.75 16.5971 14.75 15.8109H13.25ZM11.913 15.1493C12.5664 15.1493 12.9071 15.2499 13.0685 15.3552C13.1626 15.4165 13.25 15.5063 13.25 15.8109H14.75C14.75 15.1072 14.4896 14.4912 13.888 14.0988C13.3538 13.7504 12.651 13.6493 11.913 13.6493V15.1493ZM12.663 11.7779L12.663 11L11.163 11L11.163 11.7779L12.663 11.7779ZM11.163 17.2224V18H12.663V17.2224H11.163ZM11.913 12.5279C12.4479 12.5279 12.8287 12.7474 12.9857 12.9539L14.1798 12.0461C13.6817 11.3908 12.8126 11.0279 11.913 11.0279V12.5279ZM11.913 16.4724C11.3796 16.4724 10.9651 16.2972 10.7472 16.1022L9.74687 17.22C10.2909 17.7068 11.0853 17.9724 11.913 17.9724V16.4724Z" fill="#5D587B"/>
<path d="M7.25662 4.44287C7.05031 4.14258 6.75128 3.73499 7.36899 3.64205C8.00392 3.54651 8.66321 3.98114 9.30855 3.97221C9.89237 3.96413 10.1898 3.70519 10.5089 3.33548C10.8449 2.94617 11.3652 2 12 2C12.6348 2 13.1551 2.94617 13.4911 3.33548C13.8102 3.70519 14.1076 3.96413 14.6914 3.97221C15.3368 3.98114 15.9961 3.54651 16.631 3.64205C17.2487 3.73499 16.9497 4.14258 16.7434 4.44287L15.8105 5.80064C15.4115 6.38146 15.212 6.67187 14.7944 6.83594C14.3769 7 13.8373 7 12.7582 7H11.2418C10.1627 7 9.6231 7 9.20556 6.83594C8.78802 6.67187 8.5885 6.38146 8.18945 5.80064L7.25662 4.44287Z" stroke="#5D587B" stroke-width="1.5"/>
</svg>
