<svg width="24" height="24" viewBox="0 0 24 24" fill="none" xmlns="http://www.w3.org/2000/svg">
<path d="M8.5 16L5.5 2.00006L2 2" stroke="#5D587B" stroke-width="1.5" stroke-linejoin="round"/>
<path d="M9.5 16L9.49999 16.75H9.5V16ZM22 6.5H22.75C22.75 6.30109 22.671 6.11032 22.5303 5.96967C22.3897 5.82902 22.1989 5.75 22 5.75L22 6.5ZM6.5 19H5.75V19.75H6.5V19ZM22 5.75L6.5 5.75004L6.5 7.25004L22 7.25L22 5.75ZM15.7632 16.75C18.2802 16.75 20.0809 15.603 21.21 13.6944C22.3072 11.8395 22.75 9.30772 22.75 6.5H21.25C21.25 9.19228 20.8182 11.4105 19.9189 12.9307C19.0515 14.3971 17.7338 15.25 15.7632 15.25V16.75ZM6.5 19.75H17.5V18.25H6.5V19.75ZM9.5 16C9.50001 15.25 9.49963 15.25 9.49924 15.25C9.4991 15.25 9.49869 15.25 9.4984 15.25C9.49782 15.25 9.49719 15.25 9.49651 15.25C9.49515 15.2501 9.49361 15.2501 9.49188 15.2501C9.48843 15.2501 9.48423 15.2501 9.47931 15.2502C9.46947 15.2504 9.45675 15.2507 9.44133 15.2512C9.41051 15.2522 9.36878 15.2542 9.31767 15.2578C9.2157 15.2651 9.07492 15.2793 8.90796 15.3071C8.57759 15.3622 8.12563 15.4737 7.6646 15.7042C7.20062 15.9362 6.71383 16.2959 6.34471 16.8496C5.97246 17.408 5.75 18.1188 5.75 19H7.25C7.25 18.3812 7.40254 17.967 7.59279 17.6817C7.78617 17.3916 8.04938 17.1889 8.3354 17.0458C8.62437 16.9014 8.92241 16.8254 9.15454 16.7867C9.26883 16.7677 9.36243 16.7584 9.42452 16.754C9.45544 16.7518 9.47816 16.7508 9.49129 16.7504C9.49784 16.7501 9.50196 16.7501 9.50348 16.75C9.50424 16.75 9.50434 16.75 9.50377 16.75C9.50348 16.75 9.50303 16.75 9.5024 16.75C9.50208 16.75 9.50173 16.75 9.50132 16.75C9.50112 16.75 9.50079 16.75 9.50069 16.75C9.50035 16.75 9.49999 16.75 9.5 16ZM9.5 16.75H12.6316V15.25H9.5V16.75ZM12.6316 16.75H15.7632V15.25H12.6316V16.75Z" fill="#5D587B"/>
<circle cx="10.5" cy="20.5" r="1.5" stroke="#5D587B" stroke-width="1.5"/>
<circle cx="17.5" cy="20.5" r="1.5" stroke="#5D587B" stroke-width="1.5"/>
</svg>
